<svg viewBox="0 0 512 512" xmlns="http://www.w3.org/2000/svg">
  <g fill-rule="nonzero" fill="none">
    <path d="M361.872 308.294c-105.36 105.36-232.45 180.04-268.89 200.43-16.919 9.43-38.46-2.587-38.46-22.58 0-15.8-12.86-28.659-28.66-28.659-19.921 0-32.06-21.477-22.58-38.461 20.38-36.439 95.07-163.529 200.43-268.89C340.452 13.394 439.842-.356 476.212.014c19.617.228 35.552 16.142 35.78 35.78.419 36.38-13.38 135.76-150.12 272.5z" fill="#7ACEF9"/>
    <path d="M361.872 308.294c-105.36 105.36-232.45 180.04-268.89 200.43-12.967 7.227-29.596 2.026-35.98-11.51 51.15-30.12 158.08-98.13 248.87-188.92 136.74-136.74 150.54-236.12 150.12-272.5-.16-13.794-8.044-25.587-19.22-31.55 16.93-3.51 30.21-4.32 39.44-4.23 19.617.228 35.552 16.142 35.78 35.78.419 36.38-13.38 135.76-150.12 272.5z" fill="#6CB9E7"/>
    <path d="M440.972 216.064c-25.515 35.771-58.94 72.237-61.71 73.891-90.887 53.436-247.373 9.439-326.71 77.35-1.5 1.28-3.35 1.92-5.2 1.92-6.276 0-10.162-6.958-6.74-12.3 15.18-23.81 31.24-47.4 47.72-70.09.49-.68 1.09-1.28 1.77-1.771 92.353-67.11 255.878-19.287 339.66-80.119 3.17-2.311 7.54-1.971 10.33.79 2.79 2.759 3.16 7.129.88 10.329z" fill="#F1CC76"/>
    <path d="M77.203 442.802c-7.064 0-10.711-8.602-5.657-13.657l51.396-51.396c3.124-3.123 8.189-3.123 11.313 0 3.125 3.125 3.125 8.189 0 11.314L82.86 440.459c-1.562 1.562-3.609 2.343-5.657 2.343zM297.473 222.532c-7.065 0-10.711-8.602-5.657-13.657L490.059 10.632c3.125-3.123 8.189-3.123 11.314 0 3.124 3.125 3.124 8.189 0 11.314L303.13 220.19c-1.562 1.561-3.609 2.342-5.657 2.342z" fill="#6CB9E7"/>
    <path d="M440.972 216.064c-25.369 35.566-58.898 72.212-61.71 73.891-23.37 13.74-51.15 21.06-80.6 25.46 27.385-26.708 54.022-56.205 76.72-86.25 20.27-5.24 38.68-12.82 54.38-24.22 3.17-2.311 7.54-1.971 10.33.79 2.79 2.759 3.16 7.129.88 10.329z" fill="#EBB15D"/>
  </g>
</svg>